<svg xmlns="http://www.w3.org/2000/svg" viewBox="0 0 24 24" fill="currentColor">
  <path d="M12 2C6.48 2 2 6.48 2 12s4.48 10 10 10 10-4.48 10-10S17.52 2 12 2zm1 17.93c-3.95.49-7.4-2.36-7.93-6.24-.15-1.12-.01-2.19.37-3.13.38-.94.96-1.78 1.72-2.46 1.26-1.17 2.9-1.87 4.7-1.99.47-.03.91.34.91.81v4.47c0 .45-.37.82-.82.82H7.54c-.39 0-.73.28-.82.66-.41 1.68.35 3.45 1.92 4.09.44.19.94.29 1.46.29.45 0 .82.37.82.82v2.15c0 .51-.38.94-.88.99zm7.45-3.91c-.41 1.68-1.57 3.09-3.13 3.92-.38.2-.82.28-1.26.28-.9 0-1.72-.42-2.23-1.07-.31-.39-.15-.96.33-1.12.97-.32 1.73-1.13 2.04-2.1.21-.62.26-1.28.16-1.93-.06-.34.18-.66.53-.72.3-.04.58.18.65.47.1.43.16.88.16 1.34 0 .54.22 1.08.6 1.48.43.44 1.02.68 1.62.68.28 0 .56-.05.83-.16.42-.18.91.08.97.54z"/>
</svg>
